<?xml version="1.0" encoding="UTF-8" standalone="no"?>
<svg
   xmlns:dc="http://purl.org/dc/elements/1.1/"
   xmlns:cc="http://creativecommons.org/ns#"
   xmlns:rdf="http://www.w3.org/1999/02/22-rdf-syntax-ns#"
   xmlns:svg="http://www.w3.org/2000/svg"
   xmlns="http://www.w3.org/2000/svg"
   xmlns:sodipodi="http://sodipodi.sourceforge.net/DTD/sodipodi-0.dtd"
   xmlns:inkscape="http://www.inkscape.org/namespaces/inkscape"
   width="1746.014"
   height="411.14923"
   viewBox="0 0 1746.014 411.14923"
   id="svg2"
   version="1.1"
   inkscape:version="0.91 r13725"
   sodipodi:docname="Traced.svg">
  <path
     style="fill:#b50000;fill-opacity:1;stroke:none"
     d="m 106.94877,331.58152 c -22.730998,-9.889 -43.081998,-25.503 -59.909998,-43.576 -5.498,-5.904 -14.245,-14.107 -16.577,-22 -4.939,-16.721 -2.375,-39.49 -3.603,-57 -3.115,-44.445 -14.714,-89.846 6.36,-132.000003 11.835,-23.673 29.595,-42.09 57.73,-41.999 6.449,0.021 20.049998,1.521 23.932998,7.636 3.546,5.584 -5.347,24.906 -6.722,31.363 -21.922918,69.801643 -6.65097,156.882423 7.775,39.000003 1.377,-46.967003 25.702,-118.2490025 85.014,-112.70000253 20.341,1.90300003 37.479,9.69100003 56,17.69999953 30.0058,12.975 62.0753,32.897 77.0301,63 13.15282,26.476003 9.52691,56.194003 3.39428,84.000003 -13.99598,63.459 -49.57068,121.929 -100.42438,162.551 -16.635,13.288 -35.695,18.912 -57,19.434 -27.38804,0.9999 -47.29045,-4.88274 -73,-15.409 z"
     id="path6"
     inkscape:connector-curvature="0"
     sodipodi:nodetypes="ccccsccccssssscc" />
  <path
     style="fill:#333333;fill-opacity:1;stroke:none"
     d="m 22.948772,291.00552 c 15.389,10.84 27.365,26.304 43,37.279 37.215998,26.1248 78.208998,35.721 122.999998,35.721 -1.953,8.3166 -8.647,15.9701 -13.333,23 -9.184,13.7758 0.19843,-0.0927 -9.41457,13.39089 -5.288,7.4168 -6.79293,7.23029 -16.07032,9.47562 -10.90448,2.63913 -23.295,0.60098 -34,-0.86651 -33.608998,-4.60745 -64.572108,-17.3562 -90.182108,-40.0502 -10.227,-9.062 -23.4320004,-19.5131 -25.6710004,-33.9498 -0.893376,-6.16878 0.49647,-7.26138 2.341898,-10.54343 10.3454824,-18.39918 9.6391024,-15.15957 20.3291024,-33.45657"
     id="path10"
     inkscape:connector-curvature="0"
     sodipodi:nodetypes="cccccssccsc" />
  <defs />
  <text
     xml:space="preserve"
     style="font-style:normal;font-weight:normal;font-size:40px;line-height:125%;font-family:sans-serif;letter-spacing:0px;word-spacing:0px;fill:#333333;fill-opacity:1;stroke:none;stroke-width:1px;stroke-linecap:butt;stroke-linejoin:miter;stroke-opacity:1"
     x="387.56305"
     y="306.9288"
     id="text4150"
     sodipodi:linespacing="125%"><tspan
       sodipodi:role="line"
       id="tspan4152"
       x="387.56305"
       y="306.9288"
       style="font-style:normal;font-variant:normal;font-weight:normal;font-stretch:normal;font-size:287.5px;font-family:'Yuanti SC';-inkscape-font-specification:'Yuanti SC';fill:#333333;fill-opacity:1">Uppercode</tspan></text>
</svg>
