<?xml version="1.0" encoding="UTF-8" standalone="no"?>
<svg
   xmlns:dc="http://purl.org/dc/elements/1.1/"
   xmlns:cc="http://creativecommons.org/ns#"
   xmlns:rdf="http://www.w3.org/1999/02/22-rdf-syntax-ns#"
   xmlns:svg="http://www.w3.org/2000/svg"
   xmlns="http://www.w3.org/2000/svg"
   version="1.1"
   id="svg2"
   viewBox="0 0 540.00001 100"
   height="100"
   width="540">
  <defs
     id="defs4" />
  <metadata
     id="metadata7">
    <rdf:RDF>
      <cc:Work
         rdf:about="">
        <dc:format>image/svg+xml</dc:format>
        <dc:type
           rdf:resource="http://purl.org/dc/dcmitype/StillImage" />
        <dc:title></dc:title>
      </cc:Work>
    </rdf:RDF>
  </metadata>
  <g
     transform="translate(1.5917347e-6,-952.36221)"
     id="layer1">
    <g
       transform="matrix(0.30741961,0.27570818,-0.27534798,0.30782177,85.243815,824.55392)"
       id="g4157">
      <path
         transform="matrix(0.81085958,-0.58524076,0.58524076,0.81085958,0,0)"
         style="fill:#aa1616;fill-opacity:1;fill-rule:evenodd;stroke:none;stroke-width:1px;stroke-linecap:butt;stroke-linejoin:miter;stroke-opacity:1"
         d="m -100.70844,358.41138 c 14.178159,-0.79584 25.632627,13.38 25.632627,30 l 0,36.46956 c 0,16.62 -11.43217,29.97628 -25.632627,30 -14.17316,0.0237 -23.45046,-0.30241 -23.2154,-29.03398 l 0.32321,-39.50645 c 0.0751,-9.17864 11.82886,-27.30813 22.89219,-27.92913 z"
         id="rect3345" />
      <path
         style="fill:#e01616;fill-opacity:1;fill-rule:evenodd;stroke:none;stroke-width:1.07242954px;stroke-linecap:butt;stroke-linejoin:miter;stroke-opacity:1"
         d="m 214.57227,262.9707 c -40.89873,0.0236 -75.41528,17.34244 -80.64258,40.46289 l -0.002,0 c -0.82502,-0.82502 -15.6263,74.10471 34.9124,141.07199 l 100.44503,2.8e-4 c 0,0 27.21431,-80.02906 28.46875,-111.4082 0.56327,-14.0901 -1.95703,-26.83204 -1.95703,-26.83204 l -0.0254,0 C 292.91136,281.90316 257.4102,262.97416 214.57227,262.9707 Z"
         id="path3340" />
      <path
         style="fill:#26489a;fill-opacity:1;fill-rule:evenodd;stroke:none;stroke-width:0.95505536px;stroke-linecap:butt;stroke-linejoin:miter;stroke-opacity:1"
         d="m 178.90684,437.4556 c 26.88456,-4.84571 53.76913,-5.25243 80.65369,0 5.38546,1.05216 9.90484,4.10718 9.90484,9.20894 l 0,48.67583 c 0,5.10175 -4.58701,7.85582 -9.90484,9.20894 -23.99275,6.10495 -50.60261,6.68487 -80.65369,0 -5.35635,-1.19152 -9.90484,-4.10719 -9.90484,-9.20894 l 0,-48.67583 c 0,-5.10176 4.50458,-8.23559 9.90484,-9.20894 z"
         id="rect3338" />
    </g>
    <g
       transform="matrix(0.41270246,0,0,0.41324234,-35.507756,853.22125)"
       id="g4185">
      <g
         style="font-style:normal;font-variant:normal;font-weight:300;font-stretch:normal;font-size:40px;line-height:125%;font-family:Avenir;-inkscape-font-specification:'Avenir Light';letter-spacing:0px;word-spacing:0px;fill:#333333;fill-opacity:1;stroke:none;stroke-width:1px;stroke-linecap:butt;stroke-linejoin:miter;stroke-opacity:1"
         id="text4162">
        <path
           d="m 343.72531,280.01682 q 0,-4.05 3.375,-7.875 3.375,-3.825 11.25,-3.825 7.875,0 11.25,3.6 3.375,3.6 3.375,8.1 l 0,83.25 q 0,9.45 1.575,17.1 1.575,7.65 5.175,13.05 3.825,5.4 10.125,8.325 6.525,2.925 16.425,2.925 9.675,0 15.975,-2.7 6.3,-2.925 9.9,-8.1 3.825,-5.4 5.175,-13.05 1.35,-7.65 1.35,-17.55 l 0,-83.25 q 0,-4.05 3.15,-7.875 3.15,-3.825 11.475,-3.825 7.875,0 11.25,3.6 3.375,3.6 3.375,8.1 l 0,97.2 q 0,13.5 -5.4,23.625 -5.175,9.9 -13.95,16.65 -8.55,6.75 -19.8,9.9 -11.025,3.375 -22.725,3.375 -11.475,0 -22.725,-3.375 -11.025,-3.15 -19.8,-9.675 -8.775,-6.75 -14.4,-16.65 -5.4,-10.125 -5.4,-23.85 l 0,-97.2 z"
           style="font-style:normal;font-variant:normal;font-weight:normal;font-stretch:normal;font-size:225px;font-family:'Yuanti SC';-inkscape-font-specification:'Yuanti SC';fill:#333333;fill-opacity:1"
           id="path4167" />
        <path
           d="m 570.6132,368.66682 q 0.225,-19.8 -7.425,-29.925 -7.425,-10.35 -19.575,-10.125 -12.15,0.225 -18.45,11.25 -6.3,10.8 -6.525,29.025 -0.225,17.55 5.625,27.9 6.075,10.125 18.9,10.125 12.825,0 20.025,-9 7.2,-9.225 7.425,-29.25 z m -51.75,82.8 q 0,1.8 -0.675,3.825 -0.45,2.025 -2.25,3.825 -1.575,1.8 -4.5,2.925 -2.7,1.125 -6.975,1.125 -8.775,-0.225 -11.7,-4.275 -2.7,-3.825 -2.7,-7.425 l 0,-133.875 q 0,-3.6 3.375,-7.425 3.6,-4.05 10.8,-4.275 3.6,0 6.3,1.125 2.7,1.125 4.275,2.925 1.8,1.8 2.7,3.825 0.9,2.025 0.9,3.825 l 0,9.45 q 4.275,-11.475 12.6,-17.325 8.55,-6.075 19.125,-6.075 9.675,0 18.675,3.375 9,3.15 15.75,10.8 6.975,7.65 11.025,20.025 4.275,12.375 4.275,30.6 0,14.85 -3.6,26.55 -3.6,11.475 -10.125,19.575 -6.525,7.875 -15.75,11.925 -9,4.275 -20.025,4.275 -11.025,0 -18.675,-4.275 -7.65,-4.275 -12.825,-15.75 l 0,40.725 z"
           style="font-style:normal;font-variant:normal;font-weight:normal;font-stretch:normal;font-size:225px;font-family:'Yuanti SC';-inkscape-font-specification:'Yuanti SC';fill:#333333;fill-opacity:1"
           id="path4169" />
        <path
           d="m 695.41789,368.66682 q 0.225,-19.8 -7.425,-29.925 -7.425,-10.35 -19.575,-10.125 -12.15,0.225 -18.45,11.25 -6.3,10.8 -6.525,29.025 -0.225,17.55 5.625,27.9 6.075,10.125 18.9,10.125 12.825,0 20.025,-9 7.2,-9.225 7.425,-29.25 z m -51.75,82.8 q 0,1.8 -0.675,3.825 -0.45,2.025 -2.25,3.825 -1.575,1.8 -4.5,2.925 -2.7,1.125 -6.975,1.125 -8.775,-0.225 -11.7,-4.275 -2.7,-3.825 -2.7,-7.425 l 0,-133.875 q 0,-3.6 3.375,-7.425 3.6,-4.05 10.8,-4.275 3.6,0 6.3,1.125 2.7,1.125 4.275,2.925 1.8,1.8 2.7,3.825 0.9,2.025 0.9,3.825 l 0,9.45 q 4.275,-11.475 12.6,-17.325 8.55,-6.075 19.125,-6.075 9.675,0 18.675,3.375 9,3.15 15.75,10.8 6.975,7.65 11.025,20.025 4.275,12.375 4.275,30.6 0,14.85 -3.6,26.55 -3.6,11.475 -10.125,19.575 -6.525,7.875 -15.75,11.925 -9,4.275 -20.025,4.275 -11.025,0 -18.675,-4.275 -7.65,-4.275 -12.825,-15.75 l 0,40.725 z"
           style="font-style:normal;font-variant:normal;font-weight:normal;font-stretch:normal;font-size:225px;font-family:'Yuanti SC';-inkscape-font-specification:'Yuanti SC';fill:#333333;fill-opacity:1"
           id="path4171" />
        <path
           d="m 806.94758,357.41682 q 0,-5.85 -0.9,-11.025 -0.9,-5.175 -3.375,-9 -2.25,-4.05 -6.3,-6.3 -3.825,-2.475 -10.125,-2.475 -8.1,0 -13.05,2.925 -4.95,2.7 -7.65,7.2 -2.7,4.275 -3.6,9.45 -0.9,4.95 -0.9,9.225 l 45.9,0 z m -20.025,74.475 q -13.725,0 -23.85,-4.5 -10.125,-4.5 -16.875,-12.6 -6.75,-8.325 -10.125,-20.025 -3.375,-11.7 -3.375,-26.1 0,-13.95 3.375,-25.875 3.375,-11.925 10.125,-20.475 6.975,-8.775 17.1,-13.725 10.125,-4.95 23.625,-4.95 12.825,0 21.825,4.5 9,4.5 14.625,12.15 5.85,7.65 8.55,17.775 2.7,10.125 2.7,21.375 0,9.45 -2.475,14.4 -2.475,4.95 -9.225,4.95 l -61.875,0 q 0,5.175 1.125,10.125 1.125,4.95 4.05,9 3.15,4.05 8.1,6.525 5.175,2.475 13.05,2.475 10.125,0 15.75,-2.925 5.85,-3.15 9.225,-6.975 2.475,-2.925 4.95,-3.6 2.475,-0.675 4.5,0 2.25,0.45 3.825,1.575 1.8,1.125 2.925,1.8 4.275,3.375 3.375,9.45 -0.9,5.85 -6.525,11.7 -5.4,5.625 -15.3,9.675 -9.675,4.275 -23.175,4.275 z"
           style="font-style:normal;font-variant:normal;font-weight:normal;font-stretch:normal;font-size:225px;font-family:'Yuanti SC';-inkscape-font-specification:'Yuanti SC';fill:#333333;fill-opacity:1"
           id="path4173" />
        <path
           d="m 911.57258,328.61682 q -7.875,0 -13.95,2.925 -5.85,2.925 -9.9,8.1 -3.825,5.175 -5.85,12.375 -1.8,7.2 -1.8,15.525 l 0,52.65 q 0,3.825 -4.05,6.525 -3.825,2.925 -9.9,2.925 -6.075,0 -10.125,-2.925 -3.825,-2.925 -3.825,-6.525 l 0,-104.85 q 0,-4.05 4.05,-6.75 4.275,-2.7 10.125,-2.7 5.85,0 9.675,2.7 4.05,2.7 4.05,6.75 l 0,15.75 q 2.025,-4.05 4.725,-8.775 2.925,-4.725 6.75,-8.775 4.05,-4.275 9,-6.975 5.175,-2.925 11.7,-2.925 3.375,0 5.4,1.125 2.025,1.125 3.15,2.7 1.125,1.575 1.35,3.375 0.45,1.8 0.45,3.375 0,8.55 -2.925,11.475 -2.7,2.925 -8.1,2.925 z"
           style="font-style:normal;font-variant:normal;font-weight:normal;font-stretch:normal;font-size:225px;font-family:'Yuanti SC';-inkscape-font-specification:'Yuanti SC';fill:#333333;fill-opacity:1"
           id="path4175" />
        <path
           d="m 931.76984,368.44182 q 0,-12.825 3.6,-24.525 3.825,-11.7 11.025,-20.475 7.425,-9 18.225,-14.4 11.025,-5.4 25.425,-5.4 11.47496,0 20.92496,4.05 9.675,4.05 14.625,9 1.8,1.8 3.375,4.5 1.8,2.7 2.475,5.85 0.9,3.15 0.45,6.3 -0.225,3.15 -2.475,5.85 -0.9,1.125 -2.7,2.475 -1.8,1.35 -4.275,2.025 -2.475,0.45 -5.175,0 -2.7,-0.675 -5.4,-3.825 -4.5,-5.4 -9.45,-8.325 -4.72496,-2.925 -11.92496,-2.925 -6.75,0 -12.375,2.925 -5.625,2.925 -9.675,8.1 -3.825,5.175 -6.075,12.6 -2.25,7.425 -2.25,16.425 0,9.45 2.475,16.65 2.7,6.975 6.975,11.925 4.275,4.725 9.675,7.2 5.4,2.475 11.025,2.475 4.275,0 6.975,-0.45 2.92496,-0.45 4.72496,-1.35 2.025,-0.9 3.15,-1.8 1.35,-1.125 2.7,-2.25 2.025,-1.575 4.275,-3.15 2.25,-1.8 4.725,-2.475 2.475,-0.9 5.4,-0.45 2.925,0.45 6.3,2.7 4.95,3.375 5.85,7.2 0.9,3.6 -2.475,9.45 -4.5,7.875 -15.075,12.6 -10.575,4.95 -26.09996,4.95 -14.175,0 -25.2,-4.5 -11.025,-4.5 -18.675,-12.825 -7.425,-8.325 -11.25,-20.025 -3.825,-11.7 -3.825,-26.1 z"
           style="font-style:normal;font-variant:normal;font-weight:normal;font-stretch:normal;font-size:225px;font-family:'Yuanti SC';-inkscape-font-specification:'Yuanti SC';fill:#333333;fill-opacity:1"
           id="path4177" />
        <path
           d="m 1099.2226,303.64182 q 15.525,0 26.55,4.95 11.025,4.95 17.775,13.725 6.975,8.775 10.125,20.7 3.375,11.925 3.375,25.65 0,13.95 -3.375,25.65 -3.15,11.475 -10.35,19.8 -6.975,8.325 -18,13.05 -10.8,4.725 -26.1,4.725 -15.3,0 -26.1,-4.95 -10.8,-4.725 -17.775,-13.05 -6.975,-8.55 -10.125,-20.25 -3.15,-11.7 -3.15,-25.425 0,-13.725 3.15,-25.425 3.15,-11.925 9.9,-20.475 6.75,-8.775 17.55,-13.725 11.025,-4.95 26.55,-4.95 z m 0,103.275 q 15.075,0 22.05,-9.9 7.2,-10.125 7.2,-28.35 0,-18.225 -6.75,-29.025 -6.75,-11.025 -22.95,-11.025 -8.1,0 -13.5,3.15 -5.4,3.15 -8.775,8.55 -3.15,5.4 -4.5,12.6 -1.35,7.2 -1.35,15.3 0,18.225 6.75,28.575 6.75,10.125 21.825,10.125 z"
           style="font-style:normal;font-variant:normal;font-weight:normal;font-stretch:normal;font-size:225px;font-family:'Yuanti SC';-inkscape-font-specification:'Yuanti SC';fill:#333333;fill-opacity:1"
           id="path4179" />
        <path
           d="m 1196.7812,368.44182 q 0.225,20.025 7.425,29.25 7.425,9.225 20.25,9.225 12.825,0 18.675,-10.35 6.075,-10.35 6.075,-27.9 0,-18.225 -6.525,-28.8 -6.525,-10.8 -18.675,-11.25 -12.375,-0.225 -20.025,9.9 -7.425,9.9 -7.2,29.925 z m 51.975,42.3 q -1.575,3.825 -4.725,7.425 -2.925,3.6 -7.425,6.525 -4.275,2.7 -9.675,4.275 -5.4,1.8 -11.475,1.8 -10.35,0 -19.125,-4.275 -8.55,-4.05 -15.075,-11.925 -6.3,-8.1 -9.9,-19.575 -3.6,-11.7 -3.6,-26.55 0,-18.225 4.5,-30.6 4.5,-12.375 11.475,-20.025 7.2,-7.65 15.975,-10.8 9,-3.375 17.775,-3.375 4.725,0 9.45,1.8 4.95,1.575 9.225,4.725 4.275,2.925 7.65,7.425 3.375,4.275 5.4,9.45 l 0,-56.7 q 0,-1.8 0.9,-3.825 0.9,-2.025 2.475,-3.825 1.8,-1.8 4.5,-2.925 2.7,-1.125 6.3,-1.125 7.2,0.225 10.575,4.275 3.6,3.825 3.6,7.425 l 0,147.6 q 0,1.8 -0.675,3.825 -0.45,2.025 -2.25,3.825 -1.575,1.8 -4.5,2.925 -2.7,1.125 -6.975,1.125 -4.5,0 -7.2,-1.125 -2.7,-1.125 -4.5,-2.925 -1.575,-1.8 -2.25,-3.825 -0.45,-2.025 -0.45,-3.825 l 0,-7.2 z"
           style="font-style:normal;font-variant:normal;font-weight:normal;font-stretch:normal;font-size:225px;font-family:'Yuanti SC';-inkscape-font-specification:'Yuanti SC';fill:#333333;fill-opacity:1"
           id="path4181" />
        <path
           d="m 1366.8109,357.41682 q 0,-5.85 -0.9,-11.025 -0.9,-5.175 -3.375,-9 -2.25,-4.05 -6.3,-6.3 -3.825,-2.475 -10.125,-2.475 -8.1,0 -13.05,2.925 -4.95,2.7 -7.65,7.2 -2.7,4.275 -3.6,9.45 -0.9,4.95 -0.9,9.225 l 45.9,0 z m -20.025,74.475 q -13.725,0 -23.85,-4.5 -10.125,-4.5 -16.875,-12.6 -6.75,-8.325 -10.125,-20.025 -3.375,-11.7 -3.375,-26.1 0,-13.95 3.375,-25.875 3.375,-11.925 10.125,-20.475 6.975,-8.775 17.1,-13.725 10.125,-4.95 23.625,-4.95 12.825,0 21.825,4.5 9,4.5 14.625,12.15 5.85,7.65 8.55,17.775 2.7,10.125 2.7,21.375 0,9.45 -2.475,14.4 -2.475,4.95 -9.225,4.95 l -61.875,0 q 0,5.175 1.125,10.125 1.125,4.95 4.05,9 3.15,4.05 8.1,6.525 5.175,2.475 13.05,2.475 10.125,0 15.75,-2.925 5.85,-3.15 9.225,-6.975 2.475,-2.925 4.95,-3.6 2.475,-0.675 4.5,0 2.25,0.45 3.825,1.575 1.8,1.125 2.925,1.8 4.275,3.375 3.375,9.45 -0.9,5.85 -6.525,11.7 -5.4,5.625 -15.3,9.675 -9.675,4.275 -23.175,4.275 z"
           style="font-style:normal;font-variant:normal;font-weight:normal;font-stretch:normal;font-size:225px;font-family:'Yuanti SC';-inkscape-font-specification:'Yuanti SC';fill:#333333;fill-opacity:1"
           id="path4183" />
      </g>
    </g>
  </g>
</svg>
