<?xml version="1.0" encoding="UTF-8" standalone="no"?>
<svg
   xmlns:dc="http://purl.org/dc/elements/1.1/"
   xmlns:cc="http://creativecommons.org/ns#"
   xmlns:rdf="http://www.w3.org/1999/02/22-rdf-syntax-ns#"
   xmlns:svg="http://www.w3.org/2000/svg"
   xmlns="http://www.w3.org/2000/svg"
   xmlns:sodipodi="http://sodipodi.sourceforge.net/DTD/sodipodi-0.dtd"
   xmlns:inkscape="http://www.inkscape.org/namespaces/inkscape"
   width="1746.014"
   height="411.14923"
   viewBox="0 0 1746.014 411.14923"
   id="svg2"
   version="1.1"
   inkscape:version="0.91 r13725"
   sodipodi:docname="uppercode.svg">
  <metadata
     id="metadata11">
    <rdf:RDF>
      <cc:Work
         rdf:about="">
        <dc:format>image/svg+xml</dc:format>
        <dc:type
           rdf:resource="http://purl.org/dc/dcmitype/StillImage" />
      </cc:Work>
    </rdf:RDF>
  </metadata>
  <sodipodi:namedview
     pagecolor="#ffffff"
     bordercolor="#666666"
     borderopacity="1"
     objecttolerance="10"
     gridtolerance="10"
     guidetolerance="10"
     inkscape:pageopacity="0"
     inkscape:pageshadow="2"
     inkscape:window-width="1440"
     inkscape:window-height="851"
     id="namedview9"
     showgrid="false"
     inkscape:zoom="0.50217947"
     inkscape:cx="923.97906"
     inkscape:cy="28.965521"
     inkscape:window-x="0"
     inkscape:window-y="0"
     inkscape:window-maximized="1"
     inkscape:current-layer="svg2" />
  <path
     style="fill:#b50000;fill-opacity:1;stroke:none"
     d="m 106.94877,331.58152 c -22.730998,-9.889 -43.081998,-25.503 -59.909998,-43.576 -5.498,-5.904 -14.245,-14.107 -16.577,-22 -4.939,-16.721 -2.375,-39.49 -3.603,-57 -3.115,-44.445 -14.714,-89.846 6.36,-132.000003 11.835,-23.673 29.595,-42.09 57.73,-41.999 6.449,0.021 20.049998,1.521 23.932998,7.636 3.546,5.584 -5.347,24.906 -6.722,31.363 -21.922918,69.801643 -6.65097,156.882423 7.775,39.000003 1.377,-46.967003 25.702,-118.2490025 85.014,-112.70000253 20.341,1.90300003 37.479,9.69100003 56,17.69999953 30.0058,12.975 62.0753,32.897 77.0301,63 13.15282,26.476003 9.52691,56.194003 3.39428,84.000003 -13.99598,63.459 -49.57068,121.929 -100.42438,162.551 -16.635,13.288 -35.695,18.912 -57,19.434 -27.38804,0.9999 -47.29045,-4.88274 -73,-15.409 z"
     id="path6"
     inkscape:connector-curvature="0"
     sodipodi:nodetypes="ccccsccccssssscc" />
  <path
     style="fill:#333333;fill-opacity:1;stroke:none"
     d="m 22.948772,291.00552 c 15.389,10.84 27.365,26.304 43,37.279 37.215998,26.1248 78.208998,35.721 122.999998,35.721 -1.953,8.3166 -8.647,15.9701 -13.333,23 -9.184,13.7758 0.19843,-0.0927 -9.41457,13.39089 -5.288,7.4168 -6.79293,7.23029 -16.07032,9.47562 -10.90448,2.63913 -23.295,0.60098 -34,-0.86651 -33.608998,-4.60745 -64.572108,-17.3562 -90.182108,-40.0502 -10.227,-9.062 -23.4320004,-19.5131 -25.6710004,-33.9498 -0.893376,-6.16878 0.49647,-7.26138 2.341898,-10.54343 10.3454824,-18.39918 9.6391024,-15.15957 20.3291024,-33.45657"
     id="path10"
     inkscape:connector-curvature="0"
     sodipodi:nodetypes="cccccssccsc" />
  <defs
     id="defs5" />
  <g
     style="font-style:normal;font-weight:normal;font-size:40px;line-height:125%;font-family:sans-serif;letter-spacing:0px;word-spacing:0px;fill:#333333;fill-opacity:1;stroke:none;stroke-width:1px;stroke-linecap:butt;stroke-linejoin:miter;stroke-opacity:1"
     id="text4150">
    <path
       d="m 403.37555,121.4913 q 0,-5.175 4.3125,-10.0625 4.3125,-4.8875 14.375,-4.8875 10.0625,0 14.375,4.6 4.3125,4.6 4.3125,10.35 l 0,106.375 q 0,12.075 2.0125,21.85 2.0125,9.775 6.6125,16.675 4.8875,6.9 12.9375,10.6375 8.3375,3.7375 20.9875,3.7375 12.3625,0 20.4125,-3.45 8.05,-3.7375 12.65,-10.35 4.8875,-6.9 6.6125,-16.675 1.725,-9.775 1.725,-22.425 l 0,-106.375 q 0,-5.175 4.025,-10.0625 4.025,-4.8875 14.6625,-4.8875 10.0625,0 14.375,4.6 4.3125,4.6 4.3125,10.35 l 0,124.2 q 0,17.25 -6.9,30.1875 -6.6125,12.65 -17.825,21.275 -10.925,8.625 -25.3,12.65 -14.0875,4.3125 -29.0375,4.3125 -14.6625,0 -29.0375,-4.3125 -14.0875,-4.025 -25.3,-12.3625 -11.2125,-8.625 -18.4,-21.275 -6.9,-12.9375 -6.9,-30.475 l 0,-124.2 z"
       style="font-style:normal;font-variant:normal;font-weight:normal;font-stretch:normal;font-size:287.5px;font-family:'Yuanti SC';-inkscape-font-specification:'Yuanti SC';fill:#333333;fill-opacity:1"
       id="path4140" />
    <path
       d="m 693.28785,234.7663 q 0.2875,-25.3 -9.4875,-38.2375 -9.4875,-13.225 -25.0125,-12.9375 -15.525,0.2875 -23.575,14.375 -8.05,13.8 -8.3375,37.0875 -0.2875,22.425 7.1875,35.65 7.7625,12.9375 24.15,12.9375 16.3875,0 25.5875,-11.5 9.2,-11.7875 9.4875,-37.375 z m -66.125,105.8 q 0,2.3 -0.8625,4.8875 -0.575,2.5875 -2.875,4.8875 -2.0125,2.3 -5.75,3.7375 -3.45,1.4375 -8.9125,1.4375 -11.2125,-0.2875 -14.95,-5.4625 -3.45,-4.8875 -3.45,-9.4875 l 0,-171.0625 q 0,-4.6 4.3125,-9.4875 4.6,-5.175 13.8,-5.4625 4.6,0 8.05,1.4375 3.45,1.4375 5.4625,3.7375 2.3,2.3 3.45,4.8875 1.15,2.5875 1.15,4.8875 l 0,12.075 q 5.4625,-14.6625 16.1,-22.1375 10.925,-7.7625 24.4375,-7.7625 12.3625,0 23.8625,4.3125 11.5,4.025 20.125,13.8 8.9125,9.775 14.0875,25.5875 5.4625,15.8125 5.4625,39.1 0,18.975 -4.6,33.925 -4.6,14.6625 -12.9375,25.0125 -8.3375,10.0625 -20.125,15.2375 -11.5,5.4625 -25.5875,5.4625 -14.0875,0 -23.8625,-5.4625 -9.775,-5.4625 -16.3875,-20.125 l 0,52.0375 z"
       style="font-style:normal;font-variant:normal;font-weight:normal;font-stretch:normal;font-size:287.5px;font-family:'Yuanti SC';-inkscape-font-specification:'Yuanti SC';fill:#333333;fill-opacity:1"
       id="path4142" />
    <path
       d="m 852.76051,234.7663 q 0.2875,-25.3 -9.4875,-38.2375 -9.4875,-13.225 -25.0125,-12.9375 -15.525,0.2875 -23.575,14.375 -8.05,13.8 -8.3375,37.0875 -0.2875,22.425 7.1875,35.65 7.7625,12.9375 24.15,12.9375 16.3875,0 25.5875,-11.5 9.2,-11.7875 9.4875,-37.375 z m -66.125,105.8 q 0,2.3 -0.8625,4.8875 -0.575,2.5875 -2.875,4.8875 -2.0125,2.3 -5.75,3.7375 -3.45,1.4375 -8.9125,1.4375 -11.2125,-0.2875 -14.95,-5.4625 -3.45,-4.8875 -3.45,-9.4875 l 0,-171.0625 q 0,-4.6 4.3125,-9.4875 4.6,-5.175 13.8,-5.4625 4.6,0 8.05,1.4375 3.45,1.4375 5.4625,3.7375 2.3,2.3 3.45,4.8875 1.15,2.5875 1.15,4.8875 l 0,12.075 q 5.4625,-14.6625 16.1,-22.1375 10.925,-7.7625 24.4375,-7.7625 12.3625,0 23.8625,4.3125 11.5,4.025 20.125,13.8 8.9125,9.775 14.0875,25.5875 5.4625,15.8125 5.4625,39.1 0,18.975 -4.6,33.925 -4.6,14.6625 -12.9375,25.0125 -8.3375,10.0625 -20.125,15.2375 -11.5,5.4625 -25.5875,5.4625 -14.0875,0 -23.8625,-5.4625 -9.775,-5.4625 -16.3875,-20.125 l 0,52.0375 z"
       style="font-style:normal;font-variant:normal;font-weight:normal;font-stretch:normal;font-size:287.5px;font-family:'Yuanti SC';-inkscape-font-specification:'Yuanti SC';fill:#333333;fill-opacity:1"
       id="path4144" />
    <path
       d="m 995.27067,220.3913 q 0,-7.475 -1.15,-14.0875 -1.15,-6.6125 -4.3125,-11.5 -2.875,-5.175 -8.05,-8.05 -4.8875,-3.1625 -12.9375,-3.1625 -10.35,0 -16.675,3.7375 -6.325,3.45 -9.775,9.2 -3.45,5.4625 -4.6,12.075 -1.15,6.325 -1.15,11.7875 l 58.65,0 z m -25.5875,95.1625 q -17.5375,0 -30.475,-5.75 -12.9375,-5.75 -21.5625,-16.1 -8.625,-10.6375 -12.9375,-25.5875 -4.3125,-14.95 -4.3125,-33.35 0,-17.825 4.3125,-33.0625 4.3125,-15.2375 12.9375,-26.1625 8.9125,-11.2125 21.85,-17.5375 12.9375,-6.325 30.1875,-6.325 16.3875,0 27.8875,5.75 11.50003,5.75 18.68753,15.525 7.475,9.775 10.925,22.7125 3.45,12.9375 3.45,27.3125 0,12.075 -3.1625,18.4 -3.1625,6.325 -11.7875,6.325 l -79.06253,0 q 0,6.6125 1.4375,12.9375 1.4375,6.325 5.175,11.5 4.025,5.175 10.35,8.3375 6.6125,3.1625 16.675,3.1625 12.9375,0 20.125,-3.7375 7.475,-4.025 11.78753,-8.9125 3.1625,-3.7375 6.325,-4.6 3.1625,-0.8625 5.75,0 2.875,0.575 4.8875,2.0125 2.3,1.4375 3.7375,2.3 5.4625,4.3125 4.3125,12.075 -1.15,7.475 -8.3375,14.95 -6.9,7.1875 -19.55003,12.3625 -12.3625,5.4625 -29.6125,5.4625 z"
       style="font-style:normal;font-variant:normal;font-weight:normal;font-stretch:normal;font-size:287.5px;font-family:'Yuanti SC';-inkscape-font-specification:'Yuanti SC';fill:#333333;fill-opacity:1"
       id="path4146" />
    <path
       d="m 1128.9582,183.5913 q -10.0625,0 -17.825,3.7375 -7.475,3.7375 -12.65,10.35 -4.8875,6.6125 -7.475,15.8125 -2.3,9.2 -2.3,19.8375 l 0,67.275 q 0,4.8875 -5.175,8.3375 -4.8875,3.7375 -12.65,3.7375 -7.7625,0 -12.9375,-3.7375 -4.8875,-3.7375 -4.8875,-8.3375 l 0,-133.975 q 0,-5.175 5.175,-8.625 5.4625,-3.45 12.9375,-3.45 7.475,0 12.3625,3.45 5.175,3.45 5.175,8.625 l 0,20.125 q 2.5875,-5.175 6.0375,-11.2125 3.7375,-6.0375 8.625,-11.2125 5.175,-5.4625 11.5,-8.9125 6.6125,-3.7375 14.95,-3.7375 4.3125,0 6.9,1.4375 2.5875,1.4375 4.025,3.45 1.4375,2.0125 1.725,4.3125 0.575,2.3 0.575,4.3125 0,10.925 -3.7375,14.6625 -3.45,3.7375 -10.35,3.7375 z"
       style="font-style:normal;font-variant:normal;font-weight:normal;font-stretch:normal;font-size:287.5px;font-family:'Yuanti SC';-inkscape-font-specification:'Yuanti SC';fill:#333333;fill-opacity:1"
       id="path4148" />
    <path
       d="m 1154.7658,234.4788 q 0,-16.3875 4.6,-31.3375 4.8875,-14.95 14.0875,-26.1625 9.4875,-11.5 23.2875,-18.4 14.0875,-6.9 32.4875,-6.9 14.6625,0 26.7375,5.175 12.3625,5.175 18.6875,11.5 2.3,2.3 4.3125,5.75 2.3,3.45 3.1625,7.475 1.15,4.025 0.575,8.05 -0.2875,4.025 -3.1625,7.475 -1.15,1.4375 -3.45,3.1625 -2.3,1.725 -5.4625,2.5875 -3.1625,0.575 -6.6125,0 -3.45,-0.8625 -6.9,-4.8875 -5.75,-6.9 -12.075,-10.6375 -6.0375,-3.7375 -15.2375,-3.7375 -8.625,0 -15.8125,3.7375 -7.1875,3.7375 -12.3625,10.35 -4.8875,6.6125 -7.7625,16.1 -2.875,9.4875 -2.875,20.9875 0,12.075 3.1625,21.275 3.45,8.9125 8.9125,15.2375 5.4625,6.0375 12.3625,9.2 6.9,3.1625 14.0875,3.1625 5.4625,0 8.9125,-0.575 3.7375,-0.575 6.0375,-1.725 2.5875,-1.15 4.025,-2.3 1.725,-1.4375 3.45,-2.875 2.5875,-2.0125 5.4625,-4.025 2.875,-2.3 6.0375,-3.1625 3.1625,-1.15 6.9,-0.575 3.7375,0.575 8.05,3.45 6.325,4.3125 7.475,9.2 1.15,4.6 -3.1625,12.075 -5.75,10.0625 -19.2625,16.1 -13.5125,6.325 -33.35,6.325 -18.1125,0 -32.2,-5.75 -14.0875,-5.75 -23.8625,-16.3875 -9.4875,-10.6375 -14.375,-25.5875 -4.8875,-14.95 -4.8875,-33.35 z"
       style="font-style:normal;font-variant:normal;font-weight:normal;font-stretch:normal;font-size:287.5px;font-family:'Yuanti SC';-inkscape-font-specification:'Yuanti SC';fill:#333333;fill-opacity:1"
       id="path4150" />
    <path
       d="m 1368.7332,151.6788 q 19.8375,0 33.925,6.325 14.0875,6.325 22.7125,17.5375 8.9125,11.2125 12.9375,26.45 4.3125,15.2375 4.3125,32.775 0,17.825 -4.3125,32.775 -4.025,14.6625 -13.225,25.3 -8.9125,10.6375 -23,16.675 -13.8,6.0375 -33.35,6.0375 -19.55,0 -33.35,-6.325 -13.8,-6.0375 -22.7125,-16.675 -8.9125,-10.925 -12.9375,-25.875 -4.025,-14.95 -4.025,-32.4875 0,-17.5375 4.025,-32.4875 4.025,-15.2375 12.65,-26.1625 8.625,-11.2125 22.425,-17.5375 14.0875,-6.325 33.925,-6.325 z m 0,131.9625 q 19.2625,0 28.175,-12.65 9.2,-12.9375 9.2,-36.225 0,-23.2875 -8.625,-37.0875 -8.625,-14.0875 -29.325,-14.0875 -10.35,0 -17.25,4.025 -6.9,4.025 -11.2125,10.925 -4.025,6.9 -5.75,16.1 -1.725,9.2 -1.725,19.55 0,23.2875 8.625,36.5125 8.625,12.9375 27.8875,12.9375 z"
       style="font-style:normal;font-variant:normal;font-weight:normal;font-stretch:normal;font-size:287.5px;font-family:'Yuanti SC';-inkscape-font-specification:'Yuanti SC';fill:#333333;fill-opacity:1"
       id="path4152" />
    <path
       d="m 1493.3914,234.4788 q 0.2875,25.5875 9.4875,37.375 9.4875,11.7875 25.875,11.7875 16.3875,0 23.8625,-13.225 7.7625,-13.225 7.7625,-35.65 0,-23.2875 -8.3375,-36.8 -8.3375,-13.8 -23.8625,-14.375 -15.8125,-0.2875 -25.5875,12.65 -9.4875,12.65 -9.2,38.2375 z m 66.4125,54.05 q -2.0125,4.8875 -6.0375,9.4875 -3.7375,4.6 -9.4875,8.3375 -5.4625,3.45 -12.3625,5.4625 -6.9,2.3 -14.6625,2.3 -13.225,0 -24.4375,-5.4625 -10.925,-5.175 -19.2625,-15.2375 -8.05,-10.35 -12.65,-25.0125 -4.6,-14.95 -4.6,-33.925 0,-23.2875 5.75,-39.1 5.75,-15.8125 14.6625,-25.5875 9.2,-9.775 20.4125,-13.8 11.5,-4.3125 22.7125,-4.3125 6.0375,0 12.075,2.3 6.325,2.0125 11.7875,6.0375 5.4625,3.7375 9.775,9.4875 4.3125,5.4625 6.9,12.075 l 0,-72.45 q 0,-2.3 1.15,-4.8875 1.15,-2.5875 3.1625,-4.887498 2.3,-2.3 5.75,-3.7375 3.45,-1.4375 8.05,-1.4375 9.2,0.2875 13.5125,5.4625 4.6,4.887498 4.6,9.487498 l 0,188.6 q 0,2.3 -0.8625,4.8875 -0.575,2.5875 -2.875,4.8875 -2.0125,2.3 -5.75,3.7375 -3.45,1.4375 -8.9125,1.4375 -5.75,0 -9.2,-1.4375 -3.45,-1.4375 -5.75,-3.7375 -2.0125,-2.3 -2.875,-4.8875 -0.575,-2.5875 -0.575,-4.8875 l 0,-9.2 z"
       style="font-style:normal;font-variant:normal;font-weight:normal;font-stretch:normal;font-size:287.5px;font-family:'Yuanti SC';-inkscape-font-specification:'Yuanti SC';fill:#333333;fill-opacity:1"
       id="path4154" />
    <path
       d="m 1710.6515,220.3913 q 0,-7.475 -1.15,-14.0875 -1.15,-6.6125 -4.3125,-11.5 -2.875,-5.175 -8.05,-8.05 -4.8875,-3.1625 -12.9375,-3.1625 -10.35,0 -16.675,3.7375 -6.325,3.45 -9.775,9.2 -3.45,5.4625 -4.6,12.075 -1.15,6.325 -1.15,11.7875 l 58.65,0 z m -25.5875,95.1625 q -17.5375,0 -30.475,-5.75 -12.9375,-5.75 -21.5625,-16.1 -8.625,-10.6375 -12.9375,-25.5875 -4.3125,-14.95 -4.3125,-33.35 0,-17.825 4.3125,-33.0625 4.3125,-15.2375 12.9375,-26.1625 8.9125,-11.2125 21.85,-17.5375 12.9375,-6.325 30.1875,-6.325 16.3875,0 27.8875,5.75 11.5,5.75 18.6875,15.525 7.475,9.775 10.925,22.7125 3.45,12.9375 3.45,27.3125 0,12.075 -3.1625,18.4 -3.1625,6.325 -11.7875,6.325 l -79.0625,0 q 0,6.6125 1.4375,12.9375 1.4375,6.325 5.175,11.5 4.025,5.175 10.35,8.3375 6.6125,3.1625 16.675,3.1625 12.9375,0 20.125,-3.7375 7.475,-4.025 11.7875,-8.9125 3.1625,-3.7375 6.325,-4.6 3.1625,-0.8625 5.75,0 2.875,0.575 4.8875,2.0125 2.3,1.4375 3.7375,2.3 5.4625,4.3125 4.3125,12.075 -1.15,7.475 -8.3375,14.95 -6.9,7.1875 -19.55,12.3625 -12.3625,5.4625 -29.6125,5.4625 z"
       style="font-style:normal;font-variant:normal;font-weight:normal;font-stretch:normal;font-size:287.5px;font-family:'Yuanti SC';-inkscape-font-specification:'Yuanti SC';fill:#333333;fill-opacity:1"
       id="path4156" />
  </g>
</svg>
